<svg width="20" height="20" viewBox="0 0 20 20" fill="none" xmlns="http://www.w3.org/2000/svg">
<g clip-path="url(#clip0_2603_276)">
<path d="M1.66666 10.0003C1.66666 14.6028 5.39749 18.3337 9.99999 18.3337C14.6025 18.3337 18.3333 14.6028 18.3333 10.0003C18.3333 5.39783 14.6025 1.66699 9.99999 1.66699C5.39749 1.66699 1.66666 5.39783 1.66666 10.0003Z" stroke="#838383" stroke-width="1.5" stroke-linecap="round" stroke-linejoin="round"/>
<path d="M10.8333 1.70898C10.8333 1.70898 13.3333 5.00065 13.3333 10.0007C13.3333 15.0007 10.8333 18.2923 10.8333 18.2923" stroke="#838383" stroke-width="1.5" stroke-linecap="round" stroke-linejoin="round"/>
<path d="M9.16666 18.2923C9.16666 18.2923 6.66666 15.0007 6.66666 10.0007C6.66666 5.00065 9.16666 1.70898 9.16666 1.70898" stroke="#838383" stroke-width="1.5" stroke-linecap="round" stroke-linejoin="round"/>
<path d="M2.19165 12.917H17.8083" stroke="#838383" stroke-width="1.5" stroke-linecap="round" stroke-linejoin="round"/>
<path d="M2.19165 7.08398H17.8083" stroke="#838383" stroke-width="1.5" stroke-linecap="round" stroke-linejoin="round"/>
</g>
<defs>
<clipPath id="clip0_2603_276">
<rect width="20" height="20" fill="white"/>
</clipPath>
</defs>
</svg>
