<svg xmlns="http://www.w3.org/2000/svg" fill="none" viewBox="0 0 400 400" id="Something-Went-Wrong--Streamline-Lagos.svg" height="400" width="400"><desc>Something Went Wrong Streamline Illustration: https://streamlinehq.com</desc><g id="something-went-wrong--interface-something-went-wrong"><g id="group"><path id="vector" fill="#ffffff" d="M388.906 275.172c3.736 24.226 -2.124 52.672 -21.664 67.54 -3.034 2.556 -6.704 4.244 -10.62 4.886 -1.97 0.28 -3.978 -0.012 -5.786 -0.84 -1.808 -0.828 -3.34 -2.16 -4.414 -3.834 -0.83 -1.804 -1.17 -3.794 -0.984 -5.772 0.188 -1.976 0.892 -3.868 2.046 -5.484 2.316 -3.236 5.108 -6.1 8.284 -8.496 13.38 -11.894 25.38 -31.036 20.6 -49.486 -2.304 -8.734 -6.588 -16.822 -12.518 -23.634 -5.93 -6.814 -13.35 -12.172 -21.682 -15.658 0.616 -1.978 1.548 -3.844 2.76 -5.524 1.152 -2.3 3.2 -0.314 3.4 -0.212 20.4 7.646 37.532 26.772 40.578 46.514Z" stroke-width="1"></path><path id="vector_2" fill="#4b1010" d="M355.108 348.716c-1.89 -0.03 -3.744 -0.522 -5.402 -1.432 -1.656 -0.912 -3.066 -2.212 -4.104 -3.792 -0.948 -1.978 -1.348 -4.172 -1.158 -6.356 0.19 -2.184 0.964 -4.276 2.238 -6.06 2.374 -3.318 5.24 -6.254 8.498 -8.71 12.78 -11.364 24.86 -30.102 20.224 -48.436 -2.292 -8.57 -6.51 -16.504 -12.334 -23.196 -5.822 -6.692 -13.098 -11.966 -21.27 -15.418 -0.234 -0.098 -0.422 -0.28 -0.526 -0.51 -0.104 -0.23 -0.118 -0.49 -0.038 -0.73 0.652 -2.078 1.634 -4.036 2.91 -5.8 1.418 -3.02 4.444 -0.6 4.646 -0.508 21.172 7.934 38.114 27.382 41.108 47.254 3.362 21.3 -0.4 52.016 -22.048 68.49 -3.588 3.042 -8.052 4.864 -12.744 5.204Zm-11.674 -114.874c8.254 3.642 15.584 9.088 21.452 15.94 5.87 6.85 10.126 14.932 12.456 23.646 4.856 19.214 -7.616 38.678 -20.906 50.492 -3.122 2.35 -5.866 5.162 -8.14 8.34 -1.042 1.474 -1.678 3.194 -1.848 4.99 -0.168 1.796 0.136 3.606 0.884 5.248 0.982 1.476 2.358 2.644 3.974 3.372 1.616 0.726 3.404 0.984 5.16 0.74 3.732 -0.616 7.23 -2.224 10.126 -4.658 21 -15.976 24.528 -45.86 21.326 -66.628 -2.912 -18.874 -19.638 -38.12 -39.932 -45.728 -0.834 -0.4 -1.576 -1.43 -2.152 -0.276 -1.01 1.386 -1.818 2.908 -2.4 4.522Z" stroke-width="1"></path><path id="vector_3" fill="#ffffff" d="M281.86 169.3996c-1.648 -1.098 -0.244 -0.452 -14.654 -5.734 -2.396 9.0152 -3.75 18.2758 -4.036 27.6 0.054 2.2412 -0.306 4.4732 -1.062 6.584 -1.322 2.3504 -3.224 4.3244 -5.522 5.7344l-14.868 11.046 3.61 10.4c9.33 -0.67 18.538 -2.526 27.4 -5.522 1.136 -0.318 2.212 -0.822 3.186 -1.488 1.21 -0.994 2.096 -2.324 2.548 -3.822 1.198 -3.726 1.982 -7.572 2.336 -11.47 0.81 -10.0004 1.7 -19.9644 1.912 -29.9464 0.148 -1.194 -0.156 -2.3998 -0.85 -3.382Z" stroke-width="1"></path><path id="vector_4" fill="#4b1010" d="M245.328 226.048c-0.132 0.004 -0.262 -0.018 -0.386 -0.064 -0.122 -0.046 -0.234 -0.116 -0.33 -0.206 -0.194 -0.182 -0.308 -0.432 -0.318 -0.698 -0.008 -0.264 0.09 -0.522 0.27 -0.716 0.182 -0.194 0.432 -0.308 0.698 -0.316 9.246 -0.67 18.368 -2.508 27.15 -5.474 1.064 -0.3 2.072 -0.774 2.982 -1.4 1.012 -0.844 1.746 -1.974 2.106 -3.242 1.266 -3.63 2.04 -7.414 2.3 -11.25 1.058 -9.9542 1.7 -20.0002 1.91 -29.9142 0.14 -0.9342 -0.074 -1.8868 -0.6 -2.672 -1.326 -0.878 0.144 -0.222 -13.2 -5.118 -2.114 8.6334 -3.364 17.4554 -3.734 26.336 0.074 2.3552 -0.31 4.7022 -1.134 6.91 -1.402 2.5422 -3.44 4.6802 -5.914 6.2002l-14.8 11c-0.212 0.158 -0.478 0.228 -0.742 0.19 -0.262 -0.038 -0.498 -0.178 -0.658 -0.39 -0.16 -0.212 -0.228 -0.48 -0.19 -0.742 0.038 -0.262 0.178 -0.498 0.39 -0.658l14.866 -11.044c2.182 -1.326 3.986 -3.1896 5.242 -5.4122 0.704 -1.955 1.024 -4.0276 0.94 -6.104 0.386 -9.4024 1.748 -18.7392 4.066 -27.86 0.034 -0.1354 0.098 -0.2622 0.184 -0.3718 0.088 -0.1098 0.196 -0.2 0.32 -0.265s0.26 -0.1034 0.4 -0.1126c0.138 -0.009 0.278 0.0112 0.41 0.0594 14.78 5.42 13.124 4.682 14.86 5.838 0.516 0.599 0.898 1.3016 1.12 2.0606 0.222 0.759 0.278 1.5568 0.166 2.3394 -0.2 9.824 -0.844 19.928 -1.904 29.8882 -0.268 3.982 -1.068 7.91 -2.382 11.68 -0.494 1.682 -1.49 3.174 -2.856 4.274 -1.104 0.772 -2.332 1.346 -3.63 1.7 -8.926 3.018 -18.202 4.884 -27.602 5.554Z" stroke-width="1"></path><path id="vector_5" fill="#ffffff" d="M262.32 238.216c0.242 -5.946 2.818 -11.452 4.46 -17 3.006 -10.382 2.71 -21.4412 -0.85 -31.6462 -2.484 -7.242 -6.55 -14.03 -9.132 -21.238 -7.212 -20.13 7.264 -35.154 0.85 -60.32 0.212 0.638 14.23 -10.832 15.08 -12.318 4.05 19.748 25.984 28.712 37.6 41 8.256 8.734 14.24 21.234 19.116 32.07 4.68 10.4 12.102 19.754 15.93 30.584 6.152 17.4182 3.156 37.3662 -5.736 53.5242 -8.524 15.488 -22.76 17.886 -39.292 15.504 -18.976 -2.734 -38.802 -11.022 -38.026 -30.16Z" stroke-width="1"></path><path id="vector_6" fill="#4b1010" d="M310.188 270.078c-8.98 -0.144 -17.876 -1.766 -26.328 -4.8 -15.296 -5.484 -23.098 -14.84 -22.538 -27.112 0.218 -6.108 2.8 -11.71 4.502 -17.24 2.864 -10.192 2.572 -21.0142 -0.842 -31.0362 -1.252 -3.546 -2.914 -7.086 -4.522 -10.51 -6.566 -13.976 -8.932 -20.2 -4.638 -39.09 2.956 -12.554 3.226 -22.728 0.856 -32.026 -0.062 -0.2502 -0.026 -0.5146 0.104 -0.7382 0.128 -0.2236 0.336 -0.389 0.584 -0.4618 5.154 -3.5434 10.004 -7.5112 14.498 -11.862 0.106 -0.1698 0.26 -0.3042 0.442 -0.3866 0.182 -0.0826 0.384 -0.1092 0.582 -0.0766 0.196 0.0324 0.38 0.1228 0.526 0.2592 0.146 0.1366 0.248 0.3134 0.294 0.508 1.732 8.454 7.552 15.81 14.11 21.42 19.54 16.746 25.852 14.446 42.528 51.432 4.666 10.388 12.088 19.684 15.962 30.662 5.92 16.7382 3.75 37.0522 -5.8 54.3382 -7.374 13.442 -19.078 16.72 -30.32 16.72ZM258.8 108.5438c5.958 24.96 -8.154 39.964 -1.068 59.454 2.518 7.13 6.582 14.01 9.136 21.248 3.546 10.4158 3.85 21.6622 0.868 32.2542 -1.696 5.512 -4.216 11 -4.422 16.752 -0.84 18.49 18.964 26.222 37.176 29.136 19.66 2.52 31.116 -1.962 38.258 -15 9.282 -16.8 11.4 -36.5 5.668 -52.7082 -3.762 -10.658 -11.22 -20.09 -15.898 -30.508 -12.4 -27.49 -18.43 -32.71 -32.38 -43.1 -10.288 -7.66 -20.6 -15.928 -23.978 -28.4 -4.184 3.9434 -8.648 7.577 -13.36 10.872Z" stroke-width="1"></path><path id="vector_7" fill="#ffffff" d="M206.036 86.9998c-11.894 6.16 -13.104 23.52 -4.884 33.132 11.682 13.66 32.454 11.694 49.274 5.098 6.944 -2.722 14.12 -5.65 18.904 -11.468 4.972 -6.1228 7.674 -13.7768 7.646 -21.664 -0.074 -7.783 -0.928 -15.5392 -2.55 -23.152 -3.066 -15.234 -4.458 -32.934 -23.788 -34.4 -5.57 -0.4488 -11.168 0.3906 -16.36 2.453 -5.194 2.0626 -9.842 5.293 -13.586 9.441 -2.408 2.392 -4.25 5.2936 -5.39 8.4914 -1.14 3.1978 -1.548 6.6104 -1.194 9.9866 1.328 12.138 5.602 16.216 -8.072 22.082Z" stroke-width="1"></path><path id="vector_8" fill="#4b1010" d="M224.726 131.3218c-20.222 -0.24 -32.508 -14.772 -29.432 -30.8 0.4874 -3.0318 1.6692 -5.91 3.4528 -8.4096 1.7832 -2.4998 4.1212 -4.5534 6.8292 -6.0004 9.652 -4.146 10.514 -7.166 8.388 -16.644 -0.326 -1.456 -0.664 -2.962 -0.848 -4.432 -0.352 -3.5262 0.082 -7.0864 1.27 -10.425 1.186 -3.3388 3.098 -6.373 5.598 -8.885 3.838 -4.2594 8.608 -7.575 13.94 -9.6882 5.33 -2.1134 11.076 -2.9676 16.79 -2.4958 18.8 1.448 21.63 17.752 24.15 32.132 1.966 8.6738 3.008 17.531 3.11 26.424 -0.042 8.1002 -2.812 15.95 -7.862 22.284 -5.17 6.072 -12.68 9.364 -19.344 11.788 -8.232 3.494 -17.098 5.248 -26.042 5.152Zm-18.296 -43.4c-11.172 5.8 -12.426 22.44 -4.522 31.56 5.096 6.04 13.418 9.626 22.842 9.85 8.68 0.0374 17.28 -1.6698 25.288 -5.02 6.466 -2.352 13.682 -5.506 18.53 -11.2 4.754 -5.9758 7.362 -13.3774 7.4 -21.014 -0.104 -8.7776 -1.136 -17.5196 -3.08 -26.08 -2.51 -14.33 -5.076 -29.154 -22.332 -30.482 -5.418 -0.444 -10.864 0.3688 -15.918 2.375 -5.052 2.006 -9.572 5.1514 -13.21 9.191 -2.298 2.302 -4.058 5.0848 -5.152 8.148 -1.094 3.0632 -1.496 6.3308 -1.178 9.568 0.168 1.344 0.48 2.738 0.812 4.214 2.324 10.32 1.332 14.248 -9.48 18.88v0.01Z" stroke-width="1"></path><path id="vector_9" fill="#4b1010" d="M312.176 84.6858c-2.824 -3.7944 -6.62 -6.7576 -10.986 -8.578 -13.416 -6.356 -19.828 -17.762 -29.778 -31.968 -6.514 -8.954 -13.35 -4.298 -11.134 5.46 2.302 10.5148 6.288 20.589 11.8 29.834 5.37 9.0578 13.396 16.2454 22.988 20.588 5.552 2.314 12.484 3.064 16.62 -1.302 3.434 -3.676 2.976 -9.978 0.49 -14.034Z" stroke-width="1"></path><path id="vector_10" fill="#4b1010" d="M213.064 84.5858c-1.866 -3.268 -6.106 -4.4 -9.828 -4.326 -5.822 0.116 -12.868 6.4 -11.99 12.632 0.712 5.062 5.356 7.2 10.468 7.2 3.004 0.072 5.964 -0.7298 8.52 -2.308 2.042 -1.4434 3.466 -3.6018 3.99 -6.0468 0.526 -2.445 0.11 -4.9976 -1.16 -7.1512Z" stroke-width="1"></path><path id="vector_11" fill="#4b1010" d="M248.744 68.156c-3.202 -0.2202 -6.25 -1.4546 -8.702 -3.524 -0.202 -0.165 -0.332 -0.403 -0.362 -0.6626 -0.03 -0.2598 0.044 -0.5208 0.204 -0.7272 0.16 -0.2062 0.396 -0.3414 0.654 -0.3766 0.26 -0.0352 0.522 0.0324 0.732 0.1884 3.86 3 8.946 4.644 12.02 1.186 0.088 -0.0982 0.194 -0.178 0.312 -0.2352 0.118 -0.0574 0.246 -0.0906 0.378 -0.0982 0.13 -0.0076 0.262 0.0106 0.386 0.0538 0.124 0.043 0.238 0.1102 0.336 0.1976 0.098 0.0872 0.178 0.193 0.236 0.3112 0.056 0.1184 0.09 0.2466 0.098 0.3778 0.008 0.131 -0.012 0.2624 -0.054 0.3864 -0.044 0.1242 -0.11 0.2384 -0.198 0.3366 -0.764 0.8382 -1.698 1.5026 -2.74 1.9488 -1.042 0.4462 -2.166 0.6634 -3.3 0.6372Z" stroke-width="1"></path><path id="vector_12" fill="#4b1010" d="M215.058 70.0716c1.728 -0.2362 3.372 -0.8904 4.79 -1.9056 1.418 -1.0152 2.568 -2.3608 3.348 -3.9204 0.056 -0.1214 0.136 -0.2306 0.236 -0.3206 0.098 -0.09 0.214 -0.1594 0.34 -0.2036 0.128 -0.0444 0.262 -0.0628 0.394 -0.0544 0.134 0.0084 0.266 0.0438 0.386 0.1036 0.118 0.06 0.226 0.1432 0.312 0.245 0.088 0.102 0.152 0.2202 0.194 0.348 0.04 0.1276 0.054 0.2622 0.042 0.3954 -0.014 0.1334 -0.052 0.2628 -0.116 0.3806 -0.92 1.865 -2.288 3.473 -3.982 4.6802 -1.692 1.2072 -3.658 1.976 -5.722 2.2378 -0.258 0.0184 -0.512 -0.0636 -0.71 -0.2288 -0.2 -0.1654 -0.326 -0.4008 -0.354 -0.6576 -0.03 -0.2566 0.042 -0.5144 0.2 -0.7192 0.156 -0.205 0.386 -0.3412 0.642 -0.3804Z" stroke-width="1"></path><path id="vector_13" fill="#4b1010" d="M225.522 71.858c-1.43 -3.706 -5.738 -2.438 -6.638 2.36 -0.506 2.682 0.492 5.8 2.95 5.8 2.944 0.004 4.952 -4.88 3.688 -8.16Z" stroke-width="1"></path><path id="vector_14" fill="#4b1010" d="M245.958 68.7756c-1.904 0.488 -2.828 3.084 -2.104 5.91 1.22 4.766 5.6 5.68 6.778 1.924 1.108 -3.536 -1.556 -8.63 -4.674 -7.834Z" stroke-width="1"></path><path id="vector_15" fill="#4b1010" d="M225.532 116.2818c3.268 -6.553 8.88 -11.6382 15.724 -14.246 6.842 -2.6078 14.416 -2.5478 21.216 0.168 0.122 0.0478 0.234 0.1194 0.328 0.2104 0.096 0.091 0.172 0.1998 0.224 0.32 0.054 0.1204 0.082 0.25 0.084 0.3814 0.004 0.1312 -0.02 0.2618 -0.068 0.3842 -0.048 0.1224 -0.12 0.2342 -0.21 0.329 -0.092 0.0948 -0.2 0.1708 -0.32 0.2236 -0.12 0.0526 -0.25 0.0812 -0.382 0.0838 -0.132 0.0028 -0.262 -0.0206 -0.384 -0.0684 -6.336 -2.5308 -13.392 -2.5878 -19.768 -0.1598 -6.376 2.428 -11.608 7.1636 -14.656 13.2678 -0.124 0.2288 -0.33 0.4006 -0.578 0.479 -0.248 0.0782 -0.516 0.057 -0.75 -0.0592 -0.232 -0.1162 -0.41 -0.3182 -0.496 -0.5634 -0.086 -0.2454 -0.072 -0.5144 0.036 -0.7504Z" stroke-width="1"></path><path id="vector_16" fill="#4b1010" d="M280.866 106.4616c-0.194 -0.2212 -0.434 -0.3992 -0.702 -0.5226 -0.266 -0.1234 -0.558 -0.1892 -0.852 -0.1934 -1.974 0 -2.088 2.2 -1.03 2.544 0.528 0.524 0.426 6.332 -1 10.924 -0.792 2.8116 -1.904 5.5228 -3.316 8.08 -1.18 2.0352 -3.026 3.6012 -5.226 4.434 -1.066 0.4036 -2.214 0.5458 -3.346 0.415 -1.132 -0.1308 -2.216 -0.531 -3.162 -1.167 -0.044 -0.028 -0.09 -0.0534 -0.136 -0.076 -2.134 -0.984 -1.754 -3.584 -1.972 -6.184 -0.014 -0.1626 -0.066 -0.3196 -0.156 -0.4568 -0.088 -0.1374 -0.208 -0.2512 -0.35 -0.3312 -0.952 -0.536 -2.15 0.776 -2.492 1.8 -2.268 6.346 0.2 13.472 6.464 15.546 3.27 0.6978 6.68 0.2078 9.622 -1.382 7.298 -4.104 10.338 -11.54 11.742 -19.976 0.546 -2.4044 0.456 -4.9098 -0.26 -7.269 -0.716 -2.3594 -2.036 -4.491 -3.828 -6.185Z" stroke-width="1"></path><path id="vector_17" fill="#4b1010" d="M222.542 98.8276c-0.222 0 -0.44 0.066 -0.624 0.1896 -0.186 0.1236 -0.33 0.2992 -0.414 0.5048 -0.086 0.2054 -0.108 0.4316 -0.064 0.6496 0.044 0.2182 0.15 0.4184 0.308 0.5756 0.158 0.157 0.358 0.264 0.576 0.307 0.218 0.0432 0.444 0.0206 0.65 -0.0646 0.204 -0.0854 0.38 -0.2298 0.504 -0.415 0.122 -0.185 0.188 -0.4026 0.188 -0.625 0 -0.2978 -0.12 -0.5832 -0.33 -0.7934 -0.21 -0.2104 -0.496 -0.3286 -0.794 -0.3286Z" stroke-width="1"></path><path id="vector_18" fill="#4b1010" d="M227.974 97.3296c-0.222 0 -0.44 0.066 -0.624 0.1896 -0.186 0.1236 -0.33 0.2992 -0.414 0.5048 -0.086 0.2054 -0.108 0.4316 -0.064 0.6496 0.044 0.218 0.15 0.4184 0.308 0.5754 0.158 0.1572 0.358 0.264 0.576 0.3072 0.218 0.0432 0.444 0.0206 0.65 -0.0648 0.204 -0.0854 0.38 -0.2298 0.504 -0.4148 0.122 -0.1852 0.188 -0.4026 0.188 -0.625 0 -0.1476 -0.03 -0.2936 -0.086 -0.4298 -0.056 -0.1364 -0.138 -0.26 -0.244 -0.3642 -0.104 -0.1044 -0.228 -0.187 -0.364 -0.2432 -0.136 -0.0562 -0.282 -0.085 -0.43 -0.0848Z" stroke-width="1"></path><path id="vector_19" fill="#4b1010" d="M224.228 93.92c-0.222 0 -0.44 0.0658 -0.624 0.1894 -0.186 0.1234 -0.33 0.299 -0.414 0.5044 -0.086 0.2054 -0.108 0.4314 -0.064 0.6494 0.042 0.218 0.15 0.4184 0.308 0.5756 0.156 0.1572 0.356 0.2642 0.574 0.3076 0.218 0.0432 0.444 0.021 0.65 -0.064 0.206 -0.0852 0.382 -0.2292 0.504 -0.414 0.124 -0.1848 0.19 -0.4022 0.19 -0.6244 0 -0.2982 -0.118 -0.584 -0.33 -0.7948 -0.21 -0.2108 -0.496 -0.3292 -0.794 -0.3292Z" stroke-width="1"></path></g><g id="group_2"><path id="vector_20" fill="#ffe55d" d="M137.222 347.172c-0.5538 -2.78 -1.6926 -5.412 -3.3404 -7.718 -1.6478 -2.306 -3.7672 -4.236 -6.2176 -5.662 -4.984 -2.764 -10.3524 -4.768 -15.928 -5.946 -18.692 -4.462 -37.6 -7.648 -55.648 -13.8 -7.4146 -2.254 -14.3838 -5.772 -20.6 -10.4 -6.3256 -4.652 -10.591 -11.584 -11.892 -19.326 -0.4314 -4.296 0.1944 -8.632 1.8232 -12.63 1.6286 -3.998 4.2106 -7.538 7.5208 -10.31l-5.14 -6.688C17.894 262.774 10 276.338 10 289.4c0.424 13.6 10.832 25.276 22.938 31.434 19.06 9.696 40.218 8.384 61.6 15.93 6.584 2.336 12.742 3.186 17.84 8.282 0.8746 0.816 1.5318 1.84 1.912 2.974 0.85 2.76 -1.274 5.31 -2.974 7.434 -1.7 2.124 -3.4 5.31 -1.912 7.646 0.5332 0.738 1.2366 1.334 2.0504 1.742 0.8138 0.406 1.714 0.61 2.6236 0.594 9.976 1.276 24.63 -6.582 23.144 -18.264Z" stroke-width="1"></path><path id="vector_21" fill="#4b1010" d="M116.306 366.576c-0.7974 -0.002 -1.5942 -0.052 -2.386 -0.146 -1.0436 0 -2.0724 -0.248 -3.0002 -0.726 -0.928 -0.478 -1.728 -1.17 -2.3338 -2.02 -1.458 -2.29 -0.742 -5.502 1.944 -8.852 2.83 -3.534 4.366 -5.844 1.136 -9.076 -3.758 -3.756 -8.24 -5.136 -12.986 -6.6 -8.647 -3.098 -17.5538 -5.418 -26.614 -6.93 -13.584 -2.3 -27.504 -4.358 -39.582 -10.502C18.61 314.668 9.4 302 9 289.434c0 -12.542 7.048 -25.418 16.038 -33.688 0.1952 -0.18 0.4538 -0.274 0.7188 -0.264 0.265 0.012 0.5146 0.128 0.6942 0.322 0.1796 0.196 0.2742 0.454 0.2632 0.72 -0.0112 0.264 -0.127 0.514 -0.3222 0.694C18 264.948 11 277.314 11 289.4c0.37 11.8 9.16 23.81 22.4 30.544 11.824 6.014 25.62 8.044 39.012 10.312 9.1458 1.53 18.1368 3.872 26.866 7 4.99 1.536 9.704 2.986 13.812 7.094 0.9816 0.928 1.7206 2.084 2.152 3.364 0.976 3.172 -1.114 5.844 -3.14 8.374 -0.782 0.976 -3.222 4.328 -1.85 6.486 0.4426 0.596 1.0214 1.076 1.6876 1.402 0.6664 0.324 1.401 0.486 2.1424 0.47 9.856 1.242 23.526 -6.4 22.158 -17.138 -0.5292 -2.634 -1.613 -5.124 -3.1798 -7.306 -1.5666 -2.182 -3.58 -4.004 -5.9062 -5.348 -4.8886 -2.71 -10.1558 -4.674 -15.626 -5.824 -18.58 -4.434 -37.69 -7.674 -55.752 -13.836 -7.517 -2.29 -14.5822 -5.862 -20.884 -10.556 -6.5172 -4.818 -10.9166 -11.97 -12.276 -19.96 -0.4456 -4.466 0.2026 -8.974 1.8888 -13.134s4.3594 -7.848 7.7892 -10.744c0.204 -0.158 0.4614 -0.232 0.7184 -0.206 0.2568 0.028 0.4934 0.154 0.66 0.35 0.1664 0.198 0.25 0.452 0.2332 0.71 -0.0168 0.258 -0.1328 0.5 -0.3236 0.674 -3.176 2.676 -5.6546 6.084 -7.2222 9.93 -1.5678 3.846 -2.1778 8.014 -1.7778 12.148 1.2844 7.456 5.4014 14.126 11.49 18.618 17.05 12.934 47.344 17.232 75.89 24.046 5.6682 1.196 11.125 3.234 16.188 6.05 2.582 1.494 4.8146 3.524 6.5478 5.952 1.7334 2.43 2.9274 5.2 3.5022 8.128 1.432 11.182 -11.026 19.576 -21.894 19.576Z" stroke-width="1"></path><path id="vector_22" fill="#ffe55d" d="M95.8 271.562c8.72 -1.184 17.412 -3.2 24.638 -8.072 9.764 -6.6 15.692 -19.534 12.742 -31.22 -2.636 -10.454 -4.518 -11.28 -4.672 -27.612 -0.2218 -11.3462 -2.451 -22.5634 -6.584 -33.1322 -4.444 -11.686 -12.738 -19.966 -12.738 -33.126 -2.2246 -0.4432 -4.4226 -1.01 -6.584 -1.698 -2.76 -0.426 -5.728 0.384 -8.496 0 -1.696 -0.238 -17.84 -3.612 -17.84 -3.612 -2.762 12.32 -13.978 18.076 -19.964 28.248 -4 6.812 -4.8 14.908 -8.284 21.664 -6.92 13.448 -26.844 31.6162 -28.036 49.4882 -0.878 13.182 3.9 27.466 16.354 33.344 3.766 1.826 7.7698 3.112 11.894 3.824 15.5842 3.706 31.7394 4.352 47.57 1.904Z" stroke-width="1"></path><path id="vector_23" fill="#4b1010" d="M48 270.622c-4.176 -0.76 -8.2342 -2.064 -12.07 -3.882 -11.528 -5.762 -18.16398 -19.234 -16.94398 -34.338 0.736 -14 12.55998 -27.754 21.64398 -40.02 4.8 -5.607 8.2244 -12.2576 10 -19.422 3.274 -10.742 4.908 -13.826 13.576 -22.94 4.868 -5.116 9.468 -9.948 11.082 -17.156 0.0574 -0.2566 0.2138 -0.4804 0.435 -0.6226 0.2212 -0.1422 0.4896 -0.1916 0.747 -0.1374 19.442 4.092 18.108 3.864 21.8 3.6 1.4872 -0.168 2.9888 -0.168 4.476 0 0.8 0.252 5.382 1.548 6.31 1.696 0.1404 -0.0138 0.2822 0.0016 0.4164 0.0454 0.1342 0.0438 0.2578 0.1148 0.363 0.2088 0.1054 0.094 0.19 0.2088 0.2486 0.3372 0.0586 0.1284 0.09 0.2674 0.092 0.4086 0 12.874 8.178 21 12.678 32.776 4.1294 10.6906 6.3792 22.0148 6.65 33.472 0 16.244 2 16.8 4.642 27.386 2.95 11.586 -2.582 25.17 -13.154 32.294 -7.568 5.118 -16.512 6.982 -25.052 8.23 -15.9586 2.392 -32.2262 1.734 -47.94 -1.936ZM77 134.26c-3.19 12.012 -14.128 17.776 -19.842 27.574 -3.954 6.654 -4.8 14.718 -8.254 21.6 -7.13 13.47 -27.012 31.614 -27.93 49.092 -1.15598 14.316 5.048 27.022 15.8 32.4 3.687 1.746 7.5868 3 11.6 3.73 12.16 2.896 24.6946 3.896 37.16 2.964 3.368 -0.212 6.8 -0.642 10.134 -1.056 8.284 -1.214 16.966 -3.012 24.2 -7.908 9.896 -6.67 15.084 -19.348 12.334 -30.146 -2.622 -10.48 -4.704 -11.36 -4.704 -27.858 -0.2622 -11.2168 -2.4606 -22.3038 -6.498 -32.772 -4.354 -11.4 -12.46 -19.632 -12.8 -32.638 -2.0036 -0.4028 -3.9786 -0.9374 -5.912 -1.6 -2.45 -0.344 -5.45 0.482 -8.332 0.04 -1.474 -0.184 -13.434 -2.682 -16.956 -3.422Z" stroke-width="1"></path><path id="vector_24" fill="#ffe55d" d="M139.984 119.49c-0.3256 4.5172 -1.997 8.8332 -4.7986 12.3916 -2.8014 3.5582 -6.6048 6.1958 -10.9194 7.5724 -8.5512 2.8256 -17.6564 3.554 -26.548 2.124 -14 -2.228 -36.234 -7.6 -41.416 -22.726 -1.308 -3.812 -0.138 -7.63 0.636 -11.468 1.3058 -7.0248 4.3752 -13.6026 8.92 -19.116 0.426 -0.636 2.55 -2.124 2.55 -2.76 0 -0.636 -3.186 -2.55 -3.824 -2.974 -2.1338 -1.6702 -4.1228 -3.5174 -5.946 -5.522 -1.274 -1.274 -4.036 -2.336 -2.55 -4.674 0.8476 -1.0866 2.0518 -1.839 3.4 -2.124 8.658 -3.148 14.364 -2.588 23.15 -0.636 1.6436 0.623 3.3546 1.0506 5.098 1.274 3.92 -1.306 10.188 -4.584 19.964 -5.734 2.0368 -0.4658 4.16 -0.3928 6.16 0.212 0.212 0 0.424 0.212 0.636 0.424 0.212 0.426 -0.212 0.85 -0.424 1.276l-2.124 2.122c1.9578 0.296 3.8794 0.7946 5.734 1.488 1.274 0.636 2.756 2.944 4.036 2.76 5.2066 -0.7134 10.463 -0.997 15.716 -0.848 4.43 0.088 8.762 0.052 11.894 3.186 0.1038 0.1576 0.159 0.3422 0.159 0.531 0 0.1886 -0.0552 0.3734 -0.159 0.531 -0.6666 2.4842 -2.0746 4.7062 -4.036 6.37 -2.941 3.4528 -6.5536 6.2712 -10.618 8.284 0 1.654 7.19 8.99 5.31 28.036Z" stroke-width="1"></path><path id="vector_25" fill="#4b1010" d="M62.088 233.8c-7.486 0 -15.6 -3.736 -18.4 -11.15 -2.092 -5.812 -0.358 -12 1.036 -16.976 2.588 -8.7642 5.738 -18.1462 9.37 -27.9022 0.0428 -0.1268 0.1106 -0.2438 0.1994 -0.344 0.0888 -0.1002 0.1968 -0.1814 0.3178 -0.239 0.1208 -0.0578 0.252 -0.0906 0.3858 -0.0964 0.1336 -0.006 0.2672 0.0148 0.3928 0.0614 0.1254 0.0466 0.2404 0.118 0.3378 0.2098 0.0974 0.092 0.1754 0.2024 0.2294 0.325 0.0538 0.1224 0.0826 0.2546 0.0846 0.3884 0.0018 0.134 -0.0232 0.2668 -0.0736 0.3908 -3.616 9.714 -6.752 19.054 -9.324 27.7582 -1.612 5.758 -2.81 10.926 -1.08 15.732 2.908 7.686 12.4 10.896 19.91 9.55 8.02 -1.44 14.922 -6.662 21.184 -12.09 0.2002 -0.174 0.4614 -0.262 0.726 -0.242 0.131 0.008 0.259 0.044 0.3766 0.102 0.1174 0.058 0.2222 0.14 0.3084 0.238 0.0862 0.1 0.152 0.216 0.1936 0.34 0.0416 0.124 0.0584 0.256 0.0492 0.386 -0.0092 0.132 -0.0442 0.26 -0.1028 0.378 -0.0586 0.116 -0.1398 0.222 -0.239 0.308 -7.27 6.288 -16.17 12.872 -25.882 12.872Z" stroke-width="1"></path><path id="vector_26" fill="#4b1010" d="M112.942 142.9358c-0.0422 -0.7054 -0.0422 -1.4126 0 -2.118 0.0188 -0.2064 -0.0272 -0.4136 -0.1314 -0.5928 -0.1042 -0.1792 -0.2616 -0.3216 -0.4502 -0.4076 -0.1888 -0.0858 -0.3994 -0.111 -0.603 -0.0718 -0.2036 0.039 -0.39 0.1404 -0.5334 0.2902 -7.56 7.874 -30 4.4 -35.816 -4.73 -0.0934 -0.1468 -0.2234 -0.2668 -0.3774 -0.348 -0.1538 -0.0812 -0.3262 -0.1208 -0.5002 -0.115 -0.1738 0.006 -0.3432 0.057 -0.4914 0.1484 -0.148 0.0914 -0.2698 0.2198 -0.353 0.3726 -1.308 2.4 -4.63 6 -2.258 9.15 2.314 3.086 8.55 5.286 11.098 6.086 8.2346 2.9194 17.21 2.994 25.492 0.212 4.546 -1.52 5.092 -3.338 4.924 -7.876Z" stroke-width="1"></path><path id="vector_27" fill="#4b1010" d="M93.134 101.934c-2.954 -1.22 -6.338 3.388 -5.736 7.092 0.033 0.7124 0.3318 1.3866 0.8376 1.8894 0.5058 0.5028 1.1818 0.7978 1.8944 0.8266 4.102 0 6.824 -8.224 3.004 -9.808Z" stroke-width="1"></path><path id="vector_28" fill="#4b1010" d="M123.646 107.7016c-2.914 -1.214 -6.344 3.352 -5.736 7.092 0.0334 0.7124 0.3324 1.3862 0.838 1.889 0.5058 0.5028 1.1814 0.7978 1.894 0.827 4.104 0 6.824 -8.226 3.004 -9.808Z" stroke-width="1"></path><path id="vector_29" fill="#4b1010" d="M109.8 120.6278c-0.6 -0.878 -1.652 -0.018 -5.226 -1.038 -0.2548 -0.0728 -0.5282 -0.0416 -0.76 0.0872 -0.2318 0.1286 -0.403 0.344 -0.476 0.5988 -0.22 0.776 0.544 1.52 2.724 4.292 0.0874 0.1108 0.1974 0.2018 0.3226 0.2672 0.1252 0.0652 0.2628 0.1034 0.4036 0.1116 0.141 0.0084 0.2822 -0.0132 0.414 -0.0634 0.132 -0.0502 0.252 -0.1276 0.3518 -0.2274 0.92 -0.916 2.974 -2.952 2.246 -4.028Z" stroke-width="1"></path><path id="vector_30" fill="#ffffff" d="M105.06 129.1856c0.6116 1.1022 0.9916 2.3176 1.1168 3.572 0.1252 1.2542 -0.0072 2.5208 -0.3888 3.722 -0.608 -0.7758 -1.3808 -1.4068 -2.2624 -1.8474 -0.8816 -0.4406 -1.8502 -0.68 -2.8356 -0.7006 -1.9824 -0.0078 -3.9414 0.4274 -5.734 1.274 2.124 -3.4 5.948 -4.884 9.346 -6.584 0.384 -0.192 0.546 0.178 0.758 0.564Z" stroke-width="1"></path><path id="vector_31" fill="#4b1010" d="M105.03 137.1318c-0.5126 -0.6682 -1.1686 -1.2128 -1.9198 -1.5936 -0.7512 -0.3808 -1.5782 -0.588 -2.4202 -0.6064 -1.8272 -0.0108 -3.6334 0.3884 -5.286 1.168 -0.195 0.0976 -0.4164 0.129 -0.6308 0.089 -0.2144 -0.0398 -0.41 -0.1488 -0.5568 -0.31 -0.1466 -0.1612 -0.2368 -0.366 -0.2564 -0.5832 -0.0194 -0.2172 0.0324 -0.4348 0.148 -0.6198 2.212 -3.54 5.964 -5.076 9.746 -6.948 0.282 -0.154 0.6094 -0.2024 0.924 -0.1368 0.3144 0.0656 0.5952 0.241 0.792 0.4948 0.8226 1.2726 1.3544 2.7112 1.5574 4.2128 0.2028 1.5018 0.072 3.0298 -0.3834 4.4752 -0.0526 0.1708 -0.15 0.3246 -0.2822 0.445 -0.132 0.1204 -0.294 0.2032 -0.4692 0.2398 -0.175 0.0366 -0.3566 0.0256 -0.5258 -0.032 -0.1694 -0.0574 -0.3202 -0.1592 -0.4368 -0.2948Zm0.144 -2.62c0.1672 -1.6386 -0.1588 -3.2898 -0.936 -4.742 -2.1214 0.918 -4.1444 2.0484 -6.038 3.374 1.1904 -0.3116 2.436 -0.3502 3.6434 -0.1134 1.2076 0.2368 2.346 0.7432 3.3306 1.4814Z" stroke-width="1"></path><path id="vector_32" fill="#4b1010" d="M142.106 132.3836c-8.244 -2.9044 -16.7598 -4.9716 -25.418 -6.17 -0.2552 -0.046 -0.4826 -0.1894 -0.6342 -0.3998 -0.1514 -0.2106 -0.2152 -0.4718 -0.1778 -0.7284 0.0372 -0.2566 0.173 -0.4888 0.3782 -0.6472 0.2052 -0.1586 0.464 -0.2312 0.7218 -0.2026 8.685 1.1726 17.2234 3.2506 25.476 6.2 0.2276 0.076 0.4202 0.2314 0.5426 0.4376 0.1226 0.2062 0.167 0.4496 0.125 0.6858 -0.042 0.236 -0.1674 0.4494 -0.3534 0.6008 -0.1862 0.1514 -0.4204 0.2308 -0.6602 0.2238Z" stroke-width="1"></path><path id="vector_33" fill="#4b1010" d="M136.252 136.362c-6.52 -2.314 -13.182 -4.676 -19.726 -6.788 -0.126 -0.0394 -0.2428 -0.1034 -0.344 -0.1882 -0.101 -0.0848 -0.1844 -0.1888 -0.2452 -0.306 -0.0606 -0.117 -0.0976 -0.2452 -0.1086 -0.3766 -0.011 -0.1316 0.004 -0.264 0.0444 -0.3896 0.0404 -0.1256 0.1052 -0.242 0.1908 -0.3424 0.0856 -0.1006 0.1902 -0.183 0.3078 -0.2428 0.1178 -0.06 0.246 -0.0958 0.3776 -0.1058 0.1316 -0.01 0.2638 0.006 0.3892 0.0474 6.574 2.12 13.25 4.488 19.704 6.78 0.2536 0.0782 0.4656 0.254 0.5896 0.4886 0.124 0.2346 0.1496 0.5088 0.0714 0.7624 -0.0782 0.2536 -0.254 0.4656 -0.4886 0.5896 -0.2346 0.124 -0.5088 0.1496 -0.7624 0.0714Z" stroke-width="1"></path><path id="vector_34" fill="#4b1010" d="M92.2 122.1998c-8.125 -2.1202 -16.608 -2.4878 -24.886 -1.078 -0.1294 0.0232 -0.262 0.0208 -0.3904 -0.0074 -0.1284 -0.028 -0.25 -0.081 -0.358 -0.156 -0.1078 -0.075 -0.2 -0.1706 -0.2708 -0.2812 -0.071 -0.1106 -0.1196 -0.234 -0.1428 -0.3634 -0.0232 -0.1294 -0.0208 -0.262 0.0072 -0.3904 0.028 -0.1284 0.0812 -0.25 0.1562 -0.358 0.075 -0.1078 0.1706 -0.2 0.2812 -0.271 0.1106 -0.071 0.234 -0.1194 0.3634 -0.1426 8.4742 -1.4846 17.1694 -1.1168 25.488 1.078 0.2372 0.0594 0.4442 0.2036 0.5822 0.4052 0.138 0.2018 0.1974 0.4472 0.167 0.6896 -0.0306 0.2426 -0.149 0.4656 -0.3326 0.6268 -0.1838 0.1612 -0.4202 0.2496 -0.6646 0.2484Z" stroke-width="1"></path><path id="vector_35" fill="#4b1010" d="M70.744 127.7116c-0.2332 0.001 -0.4594 -0.0794 -0.6394 -0.2274 -0.1802 -0.148 -0.3028 -0.3544 -0.347 -0.5834 -0.0442 -0.2288 -0.0068 -0.466 0.1054 -0.6704 0.1122 -0.2044 0.2922 -0.363 0.509 -0.4488 6.5634 -2.683 13.7558 -3.44 20.734 -2.182 0.2608 0.049 0.4912 0.1998 0.641 0.4188 0.1496 0.219 0.206 0.4886 0.157 0.7492 -0.049 0.2608 -0.1996 0.4912 -0.4188 0.641 -0.219 0.1496 -0.4884 0.206 -0.7492 0.157 -6.7342 -1.1458 -13.6544 -0.403 -19.992 2.146Z" stroke-width="1"></path><path id="vector_36" fill="#4b1010" d="M149.736 74.3318c-1.574 -2.36 -15.432 -5.176 -28.154 -2.384 -1.526 -1.872 -5.678 -3.062 -8.078 -3.338 1.0238 -0.8312 1.8762 -1.8536 2.51 -3.01 0.0758 -0.1404 0.1168 -0.2968 0.1198 -0.4562 0.003 -0.1596 -0.0322 -0.3174 -0.1028 -0.4604 -0.0704 -0.1432 -0.174 -0.2674 -0.3022 -0.3622 -0.1284 -0.0948 -0.2774 -0.1576 -0.4348 -0.1832 -9.4182 -1.5784 -19.0828 0.5184 -27 5.858 -4.9868 -1.5942 -10.1338 -2.6358 -15.348 -3.106 -5.966 -0.5158 -11.9436 0.8516 -17.092 3.91 -0.429 0.1638 -0.804 0.4438 -1.0826 0.8088 -0.2786 0.365 -0.45 0.8006 -0.495 1.2576 -0.0448 0.457 0.0386 0.9174 0.241 1.3296 0.2024 0.4122 0.5156 0.76 0.9046 1.004 3.3818 3.8008 7.1818 7.2078 11.328 10.156 -5.4778 6.0886 -9.2058 13.5462 -10.788 21.582 -0.83 4.11 -1.95 7.98 -0.6 12.018 5.218 14.844 25.838 20.918 42.192 23.396 9.0386 1.5544 18.3226 0.813 27 -2.156 4.5376 -1.371 8.5446 -4.1022 11.4798 -7.8242 2.9352 -3.7222 4.6568 -8.2556 4.9322 -12.9878 0.9634 -9.3918 -0.7054 -18.8666 -4.82 -27.364 3.8802 -2.5668 7.4548 -5.5682 10.654 -8.946 1.9898 -1.6996 3.2518 -4.0976 3.526 -6.7 -0.0466 -0.7154 -0.248 -1.412 -0.59 -2.042Zm-91.6 0.882c5.0598 1.9202 9.987 4.1724 14.75 6.742 -0.3686 -0.063 -0.747 -0.036 -1.1028 0.0788 -0.356 0.1146 -0.679 0.3136 -0.9416 0.5798 -0.2624 0.2662 -0.4568 0.592 -0.5664 0.9496 -0.1096 0.3574 -0.1314 0.7362 -0.0632 1.1038 -3.812 -1.338 -8.8 -6 -12.07 -9.454h-0.006Zm80.85 43.986c-0.2362 4.346 -1.8088 8.513 -4.5024 11.9316 -2.6938 3.4186 -6.3774 5.9222 -10.5476 7.1684 -8.3784 2.8666 -17.343 3.5818 -26.07 2.08 -15.83 -2.4 -35.73 -8.176 -40.616 -22.054 -1.178 -3.532 -0.106 -7.114 0.674 -10.976 1.5246 -7.7774 5.1568 -14.9866 10.5 -20.84 0.964 0.52 1.9778 0.9422 3.026 1.26 0.968 0.34 2.368 -1.366 1.024 -3.094 -0.686 -0.888 0.2 -0.864 1.2 -0.536l5.736 1.488c0.2568 0.0666 0.5294 0.0284 0.758 -0.106 0.2286 -0.1344 0.3944 -0.3542 0.461 -0.611 0.0666 -0.2568 0.0284 -0.5294 -0.106 -0.758 -0.1346 -0.2286 -0.3542 -0.3944 -0.611 -0.461l-0.416 -0.108c-0.0876 -0.1784 -0.227 -0.3262 -0.4 -0.424 -7.0886 -4.2326 -14.5678 -7.7744 -22.334 -10.576 4.876 -2.268 8.6 -4.4 15.984 -3.71 5.6466 0.4984 11.2098 1.695 16.562 3.562 0.1976 0.0676 0.4114 0.0718 0.6114 0.0118 0.2 -0.06 0.3762 -0.181 0.504 -0.3462 0.1276 -0.1652 0.2004 -0.3662 0.208 -0.575 0.0078 -0.2086 -0.0502 -0.4144 -0.1654 -0.5886 6.8504 -4.2544 14.9504 -6.0372 22.954 -5.052 -1.0626 1.2896 -2.4754 2.2446 -4.068 2.75 -0.7094 0.0914 -1.4126 0.2248 -2.106 0.4 -0.2422 0.0606 -0.453 0.2096 -0.591 0.4178 -0.138 0.208 -0.193 0.4602 -0.1544 0.707 0.0386 0.2466 0.168 0.47 0.363 0.626 0.195 0.156 0.4412 0.2336 0.6904 0.2172 0.7458 -0.0524 1.4836 -0.1864 2.2 -0.4 3.3074 -0.3734 6.6482 0.3114 9.542 1.956 0.954 0.572 1.694 1.734 0.212 1.756 -2.2714 0.206 -4.5566 0.206 -6.828 0 -0.2652 -0.0242 -0.5292 0.058 -0.7338 0.2286 -0.1012 0.0844 -0.185 0.1878 -0.2462 0.3046 -0.0614 0.1168 -0.099 0.2444 -0.111 0.3758 -0.012 0.1314 0.002 0.2638 0.0412 0.3896 0.0394 0.126 0.103 0.2428 0.1874 0.3442 0.1704 0.2046 0.4152 0.333 0.6804 0.3572 2.3618 0.215 4.7382 0.215 7.1 0 0.7012 0.0388 1.3894 -0.2014 1.914 -0.6684 0.5246 -0.467 0.8432 -1.1226 0.886 -1.8236 8.1852 -1.7466 16.6806 -1.3748 24.682 1.08 -5.8858 2.21 -11.2726 5.57 -15.846 9.884 -0.2564 0.1856 -0.4692 0.4248 -0.6238 0.701 -0.1544 0.2762 -0.247 0.5826 -0.2712 0.8982s0.0206 0.6326 0.1314 0.929c0.1106 0.2964 0.2846 0.5654 0.5096 0.7878 6.668 7.08 9.08 20.992 8.006 31.096Zm6.428 -37.56c-3.0854 3.26 -6.5284 6.1616 -10.264 8.65 -0.564 -0.898 -2.564 -3.628 -2.71 -3.718 1.308 -1.962 8.086 -7.156 15.858 -10 -0.3258 1.9788 -1.3488 3.7758 -2.884 5.066v0.002Z" stroke-width="1"></path><path id="vector_37" fill="#4b1010" d="M85.186 99.888c-0.2652 0 -0.5196 -0.1054 -0.7072 -0.293 -0.1874 -0.1874 -0.2928 -0.4418 -0.2928 -0.707 0 -0.2652 0.1054 -0.5196 0.2928 -0.7072 0.1876 -0.1876 0.442 -0.2928 0.7072 -0.2928 4.2116 0.0322 8.3604 -1.0216 12.046 -3.06 0.9996 -0.6206 1.8124 -1.5006 2.352 -2.546 0.1186 -0.2374 0.3266 -0.418 0.5782 -0.502 0.2516 -0.084 0.5264 -0.0646 0.7638 0.054 0.2374 0.1184 0.418 0.3264 0.502 0.5782 0.084 0.2516 0.0646 0.5264 -0.054 0.7638 -0.715 1.3964 -1.8024 2.5676 -3.142 3.384 -3.9896 2.214 -8.4834 3.3604 -13.046 3.328Z" stroke-width="1"></path><path id="vector_38" fill="#4b1010" d="M131.062 110.2936c-0.888 0 -1.104 -1.1 -6.076 -4.414 -1.4564 -0.8158 -2.836 -1.7616 -4.122 -2.826 -0.6918 -0.6436 -1.2484 -1.4188 -1.6372 -2.28 -0.3886 -0.8612 -0.6018 -1.7914 -0.6268 -2.736 0 -0.2652 0.1054 -0.5196 0.2928 -0.7072 0.1876 -0.1874 0.442 -0.2928 0.7072 -0.2928 0.2652 0 0.5196 0.1054 0.707 0.2928 0.1876 0.1876 0.293 0.442 0.293 0.7072 0.0586 1.3454 0.639 2.6152 1.618 3.54 2.824 2.34 4.4 2.492 9.508 6.964 0.1532 0.1344 0.2618 0.3122 0.3112 0.51 0.0492 0.1978 0.037 0.4058 -0.0352 0.5964 -0.0724 0.1906 -0.201 0.3546 -0.369 0.47 -0.168 0.1152 -0.3672 0.1766 -0.571 0.1756Z" stroke-width="1"></path><path id="vector_39" fill="#4b1010" d="M71.6 210.756c-0.2288 -0.002 -0.45 -0.082 -0.6272 -0.226 -0.177 -0.144 -0.2992 -0.346 -0.346 -0.57 -0.0468 -0.224 -0.0154 -0.456 0.089 -0.66 0.1042 -0.204 0.2752 -0.366 0.4842 -0.458 7.7534 -3.51 16.3524 -4.716 24.772 -3.474 0.2624 0.04 0.4978 0.184 0.6548 0.398 0.157 0.212 0.2226 0.48 0.1822 0.742 -0.0404 0.264 -0.1832 0.498 -0.3972 0.656 -0.214 0.156 -0.4814 0.222 -0.7438 0.182 -8.1836 -1.126 -16.5192 0.054 -24.068 3.41Z" stroke-width="1"></path></g><g id="group_3"><path id="vector_40" fill="#ffb43b" d="M110.886 280.058c39.295 0 71.15 -15.024 71.15 -33.558s-31.855 -33.558 -71.15 -33.558 -71.15 15.024 -71.15 33.558 31.855 33.558 71.15 33.558Z" stroke-width="1"></path><path id="vector_41" fill="#4b1010" d="M110.886 211.942c-39.784 0 -72.152 15.502 -72.152 34.558 0 19.056 32.368 34.558 72.152 34.558s72.15 -15.504 72.15 -34.558c0 -19.054 -32.366 -34.558 -72.15 -34.558Zm-50.73 57.022c19.3 -11.318 49.238 -10.632 71.14 -6.616 8.7808 1.446 17.2218 4.492 24.904 8.984 -28.348 11.162 -70.4 10.102 -96.044 -2.368Zm98.3 1.442c-7.972 -5.4 -17.4 -8.2 -26.788 -10.022 -22.8 -4.18 -53.85 -4.77 -73.616 7.51 -10.778 -5.726 -17.318 -13.212 -17.318 -21.4 0 -17.952 31.47 -32.558 70.152 -32.558s70.15 14.6 70.15 32.558c0 9.446 -8.702 17.96 -22.58 23.906v0.006Z" stroke-width="1"></path><g id="group_4"><path id="vector_42" fill="#ffffff" d="M67.346 236.516c-8.048 -5.258 -9.236 -0.222 -17 -2.548 -1.0488 -0.41 -1.9626 -1.104 -2.6378 -2.004 -0.6754 -0.9 -1.0856 -1.972 -1.1842 -3.094 0 -3.61 3.822 -5.946 7.432 -5.946 1.488 0 3.612 -0.212 3.824 -1.7 0.0334 -0.436 -0.0392 -0.872 -0.212 -1.274 -0.4182 -1.498 -0.379 -3.088 0.1128 -4.564s1.4138 -2.77 2.6472 -3.718c0.5936 -0.45 1.272 -0.774 1.9944 -0.952 0.7222 -0.18 1.4734 -0.21 2.208 -0.092 0.7346 0.12 1.4376 0.386 2.0662 0.784 0.6286 0.398 1.17 0.92 1.5914 1.534v0.212c1.91 3.61 -1.084 6.822 2.548 9.77 9.232 7.494 10.6 7.84 69.026 42.902 2.3286 1.756 5.1562 2.724 8.072 2.762 2.76 -0.212 5.522 -1.912 8.07 -0.85 1.045 0.538 1.8582 1.44 2.288 2.534 0.4298 1.094 0.4468 2.308 0.048 3.414 -1.546 4.44 -7.54 3.82 -7.432 9.77 0.174 9.766 -9.352 8.188 -10.832 2.76 -0.638 -2.336 -1.488 -4.46 -2.338 -6.8 -2.548 -4.886 -8.106 -6.514 -12.742 -8.92 -20.206 -10.496 -42.596 -24.206 -57.55 -33.98Z" stroke-width="1"></path><path id="vector_43" fill="#4b1010" d="M139.018 286.48c-0.566 -2.078 -1.294 -3.96 -2.31 -6.718 -2.308 -4.4 -7.748 -6.116 -12.252 -8.368 -20.044 -10.8 -42.544 -24.358 -57.65 -34.036 -1.7048 -1.216 -3.6588 -2.036 -5.72 -2.4 -3.736 0.016 -5.936 1.488 -11.02 -0.038 -1.2368 -0.472 -2.3166 -1.28 -3.1172 -2.334 -0.8008 -1.054 -1.2902 -2.312 -1.4128 -3.63 0 -4.382 4.374 -7.038 8.43 -7.038 1.672 0 2.758 -0.322 2.832 -0.84 0.0092 -0.234 -0.0302 -0.468 -0.116 -0.686 -0.523 -1.71 -0.5108 -3.54 0.0352 -5.244 0.5458 -1.702 1.599 -3.198 3.0188 -4.286 0.7022 -0.53 1.5046 -0.914 2.3588 -1.124 0.8544 -0.212 1.7426 -0.248 2.6112 -0.106 0.8684 0.142 1.6992 0.458 2.4418 0.93 0.7424 0.474 1.3814 1.092 1.8782 1.818 0.1046 0.156 0.1628 0.34 0.168 0.528 1.838 3.8 -0.85 6.738 2.186 9.238 9.366 7.492 10.828 7.97 68.906 42.818 2.1758 1.654 4.823 2.572 7.556 2.618 2.532 -0.2 5.524 -2 8.456 -0.772 1.2864 0.634 2.293 1.72 2.8266 3.052 0.5334 1.332 0.556 2.812 0.0634 4.16 -0.7802 1.892 -2.215 3.44 -4.042 4.362 -2.706 1.746 -3.678 2.736 -3.224 6.276 1.004 7.826 -10.828 9.426 -12.904 1.82Zm-71.124 -50.8c14.526 9.49 37.12 22.976 57.484 33.938 4.842 2.416 10.438 4.132 13.156 9.34 0.97 2.6 1.8 4.766 2.414 7 1.146 4.2 8.866 6.252 8.866 -2.498 -0.232 -6.542 6.178 -6.164 7.486 -10.086 0.33 -0.878 0.3256 -1.844 -0.0128 -2.718 -0.3384 -0.874 -0.9866 -1.592 -1.8212 -2.018 -1.4756 -0.364 -3.0284 -0.252 -4.436 0.322 -1.0158 0.322 -2.063 0.532 -3.124 0.63 -3.1482 -0.028 -6.205 -1.062 -8.724 -2.95 -71.526 -42.91 -71.68 -42 -71.316 -49.12 0.2028 -1.45 -0.0284 -2.928 -0.664 -4.246 -0.7322 -0.926 -1.7984 -1.53 -2.9698 -1.678 -1.1714 -0.15 -2.3546 0.166 -3.2962 0.878 -1.0678 0.828 -1.866 1.954 -2.2932 3.236 -0.4274 1.282 -0.4644 2.66 -0.1068 3.964 0.2056 0.488 0.2912 1.02 0.25 1.548 -0.252 1.84 -1.872 2.7 -4.822 2.7 -3.108 0 -6.434 1.988 -6.434 4.946 0.0994 0.922 0.4506 1.798 1.015 2.534 0.5644 0.736 1.3204 1.302 2.185 1.636 7.226 2.162 8.798 -2.822 17.164 2.642Z" stroke-width="1"></path></g><path id="vector_44" fill="#4b1010" d="M180.836 248.468c-2.686 17.152 -33.412 30.6 -69.95 30.6 -36.936 0 -67.66 -13.52 -69.948 -30.778 -0.0346 -0.246 -0.1588 -0.468 -0.3486 -0.628 -0.1896 -0.158 -0.4316 -0.24 -0.6788 -0.232 -0.2472 0.01 -0.4822 0.11 -0.6596 0.282 -0.1774 0.172 -0.2848 0.404 -0.301 0.652 -0.422 7.36 5.968 39.2 7.37 42 2.14 3.534 5.1848 6.434 8.82 8.4 15.3474 9.452 32.8 14.946 50.7938 15.994s35.9662 -2.386 52.3062 -9.994c5.3798 -2.144 10.0736 -5.712 13.576 -10.324 2.572 -3.742 10.812 -40.676 11 -45.768 0.0012 -0.248 -0.09 -0.488 -0.2558 -0.674 -0.166 -0.184 -0.3946 -0.3 -0.6416 -0.326 -0.2472 -0.026 -0.4948 0.042 -0.695 0.19 -0.2 0.146 -0.3382 0.362 -0.3876 0.606Z" stroke-width="1"></path><path id="vector_45" fill="#ffffff" d="M125.428 295.032c-0.31 -0.742 -0.7548 -1.42 -1.312 -2 -0.434 -0.514 -0.974 -1.154 -0.976 -1.458l0.214 -4.46c0.01 -0.202 -0.0414 -0.402 -0.1474 -0.574 -0.106 -0.172 -0.2616 -0.308 -0.4462 -0.39 -0.1846 -0.082 -0.3898 -0.106 -0.5884 -0.068 -0.1984 0.036 -0.3812 0.132 -0.524 0.276l-2.894 2.894c-0.0742 -0.054 -0.1558 -0.096 -0.242 -0.126 -5.164 -2.296 -10.244 -0.512 -12.098 -0.512 -0.9434 -0.766 -1.8384 -1.592 -2.68 -2.468 -0.1442 -0.144 -0.3288 -0.24 -0.5292 -0.276 -0.2006 -0.036 -0.4072 -0.01 -0.5926 0.074 -0.1852 0.084 -0.3404 0.224 -0.4444 0.398 -0.104 0.176 -0.152 0.378 -0.1378 0.582 0.216 2.978 0.2 2.812 0.2 3.148 -1.2736 1.116 -2.3194 2.466 -3.08 3.98 -0.801 1.646 -0.9628 3.532 -0.454 5.292 3.104 7.456 14.16 9.338 21.506 5.84 6.198 -2.75 6.264 -7.038 5.226 -10.152Zm-6.644 -5.732 0.028 0.032 -0.028 -0.032Zm0.6 14.066c-9.416 4.482 -21.812 -1.626 -18.4 -8.474 0.5806 -1.18 1.3834 -2.236 2.364 -3.11 0.262 -0.11 0.4866 -0.292 0.6472 -0.526 0.1604 -0.234 0.2496 -0.508 0.2568 -0.792l-0.03 -1.098c0.224 0.2 0.446 0.376 0.662 0.534 0.2734 0.332 0.64 0.572 1.0524 0.692s0.8514 0.112 1.2596 -0.02c3.568 -0.6 6.938 -1.156 10.384 0.322 0.3378 0.254 0.7542 0.38 1.176 0.358 1.01 0 0.916 -0.076 2.49 -1.652l-0.092 1.926c0 1.788 2.028 3.066 2.388 4.14 1.148 3.478 -0.164 5.922 -4.166 7.7h0.008Z" stroke-width="1"></path></g><g id="group_5"><g id="group_6"><path id="vector_46" fill="#ffb43b" d="M279.1 284.518c39.178 0 70.938 -15.12 70.938 -33.77 0 -18.65 -31.76 -33.77 -70.938 -33.77s-70.938 15.12 -70.938 33.77c0 18.65 31.76 33.77 70.938 33.77Z" stroke-width="1"></path><path id="vector_47" fill="#4b1010" d="M279.098 215.976c-39.666 0 -71.938 15.6 -71.938 34.772 0 19.172 32.272 34.77 71.938 34.77 39.666 0 71.94 -15.6 71.94 -34.77s-32.272 -34.772 -71.94 -34.772ZM228.2 273.2c19.222 -11.252 49.504 -10.748 71.32 -6.386 9.37 1.83 17.234 3.954 25.014 8.836 -28.396 11.38 -70.734 10.288 -96.334 -2.45Zm98.564 1.518c-8.142 -5.554 -17.072 -7.956 -26.856 -9.866 -22.56 -4.51 -54.028 -4.974 -73.8 7.266 -10.556 -5.742 -16.948 -13.21 -16.948 -21.364 0 -18.07 31.374 -32.772 69.938 -32.772 38.564 0 69.94 14.702 69.94 32.772 0 9.446 -8.582 17.972 -22.284 23.958l0.01 0.006Z" stroke-width="1"></path></g><g id="group_7"><path id="vector_48" fill="#ffe55d" d="M335.17 240.552c-0.988 0.496 -0.37 0.062 -4.884 3.824 -0.212 0.212 -2.336 1.274 -2.336 1.698 -0.214 -1.06 -0.214 -2.124 -0.426 -3.186 -2.268 1.888 -4.682 3.594 -7.22 5.098 -0.25 0.168 -0.55 0.244 -0.85 0.212 -0.426 -0.212 -0.426 -0.848 -0.426 -1.274 0.106 -0.234 0.16 -0.488 0.16 -0.744s-0.054 -0.51 -0.16 -0.744c-2.124 -0.21 -3.822 1.7 -5.946 2.338 -0.158 0.104 -0.342 0.158 -0.53 0.158 -0.19 0 -0.374 -0.054 -0.532 -0.158 -1.274 -0.85 1.274 -2.76 0.212 -3.61 -0.196 -0.106 -0.414 -0.162 -0.636 -0.162 -0.224 0 -0.442 0.056 -0.638 0.162l-8.284 2.76c0.228 -2.966 0.214 -2.6 0.214 -3.186 -0.084 -0.08 -0.184 -0.142 -0.296 -0.178 -0.11 -0.036 -0.226 -0.048 -0.342 -0.034 -3.824 0.212 -7.222 2.548 -11.044 3.6h-0.85c-0.426 -0.212 -0.212 -1.062 0 -1.7 0.212 -0.638 0.636 -1.486 0.212 -1.91 -0.18 -0.136 -0.39 -0.224 -0.612 -0.262 -0.22 -0.036 -0.448 -0.02 -0.662 0.05 -4.15 0.782 -8.206 1.992 -12.106 3.61 -0.242 0.18 -0.516 0.31 -0.808 0.382 -0.292 0.074 -0.594 0.088 -0.892 0.044 -0.294 -0.064 -0.558 -0.224 -0.75 -0.456 -0.192 -0.23 -0.302 -0.52 -0.312 -0.82 0 -0.424 0.638 -0.848 0.85 -1.274 0.212 -0.426 0.424 -1.274 0 -1.486 -0.156 -0.106 -0.342 -0.164 -0.53 -0.164 -0.19 0 -0.376 0.058 -0.532 0.164 -3.62 1.49 -7.046 3.416 -10.2 5.734 -2.7 2.242 -5.254 4.654 -7.646 7.22 7.018 -4.75 27.628 -4.786 45.584 -3.944 17.956 0.842 25.25 -0.56 30.452 -3.488 1.882 -2.034 3.2 -4.522 3.822 -7.222v-0.638c-0.04 -0.098 -0.098 -0.188 -0.174 -0.264 -0.076 -0.074 -0.166 -0.134 -0.264 -0.172 -0.1 -0.04 -0.206 -0.058 -0.312 -0.054 -0.106 0.004 -0.21 0.03 -0.306 0.076Z" stroke-width="1"></path><path id="vector_49" fill="#ffe55d" d="M289.506 288.34c-3.158 -0.922 -5.92 -2.864 -7.858 -5.522l-14.442 4.886c7.22 1.91 14.866 3.4 22.512 1.91 0.212 0 0.638 -0.212 0.638 -0.424s-0.426 -0.638 -0.85 -0.85Z" stroke-width="1"></path><path id="vector_50" fill="#ffe55d" d="m340.754 263.18 -9.77 0.212 -5.734 7.434c5.614 -0.474 10.916 -2.788 15.08 -6.584 0.212 -0.212 0.638 -0.642 0.424 -1.062Z" stroke-width="1"></path><path id="vector_51" fill="#ffe55d" d="M355.984 239.702c5.52 4.136 5.2 10.188 4.036 16.568 0.22 -2.616 -0.218 -5.244 -1.274 -7.646 -0.902 -2.594 -2.522 -4.876 -4.672 -6.584 1.808 2.15 2.854 4.838 2.972 7.646 0 12.562 -4.248 15.418 -1.274 20.176 -1.152 -0.744 -2.116 -1.746 -2.816 -2.926 -0.702 -1.18 -1.118 -2.506 -1.22 -3.874 -0.212 -2.762 -0.212 -5.31 -0.212 -8.072 0 -3.4 -0.636 -8.282 -2.974 -11.044 -0.762 -0.86 -1.826 -1.392 -2.972 -1.486 -0.404 -1.308 -0.9 -2.586 -1.488 -3.824 3.354 -2.236 8.71 -1.32 11.894 1.066Z" stroke-width="1"></path><path id="vector_52" fill="#ffffff" d="M288.232 250.11c-19.582 1.36 -41.012 5.954 -53.948 20.6 -1.89 2.142 -5.31 6.8 -3.822 9.982 0.544 0.798 1.272 1.454 2.124 1.912 9.76 6.2 19.6 6.894 31.434 5.946 10.678 -0.764 21.268 -2.47 31.646 -5.096 16 -4.2 26.558 -8.062 36.106 -16.78 10 -9.122 8.686 -22.364 14.018 -24.212 1.27 -0.44 1.274 -3.4 0.212 -4.46 -7 1.274 -13.6 10.2 -19.328 11.894 -11.468 3.4 -19.964 0.424 -33.344 0.212 -1.692 -0.212 -3.406 -0.21 -5.098 0.002Z" stroke-width="1"></path><path id="vector_53" fill="#4b1010" d="M247.822 262.496c-0.28 -0.07 -0.572 -0.078 -0.858 -0.026 -0.284 0.054 -0.552 0.168 -0.788 0.336 -2.052 1.48 -0.03 5.77 2.894 4.278 0.436 -0.292 0.77 -0.714 0.954 -1.206 0.184 -0.492 0.21 -1.03 0.072 -1.536 -0.138 -0.508 -0.432 -0.958 -0.84 -1.29 -0.408 -0.33 -0.91 -0.526 -1.434 -0.556Z" stroke-width="1"></path><path id="vector_54" fill="#ffe55d" d="M290.374 259.258c5.4 -2.162 6.038 3.19 4.246 4.674 -1.176 0.906 -2.566 1.49 -4.034 1.698 -15.17 2.348 -17.304 0.2 -21.028 1.912 6.776 -3.156 13.726 -5.922 20.816 -8.284Z" stroke-width="1"></path><path id="vector_55" fill="#4b1010" d="M290.076 258.304c-6.988 2.316 -13.836 5.034 -20.51 8.142 -0.932 -2.14 -2.37 -4.022 -4.19 -5.486 -1.82 -1.462 -3.968 -2.462 -6.258 -2.914 -0.128 -0.026 -0.262 -0.028 -0.39 -0.002 -0.13 0.026 -0.252 0.076 -0.362 0.148 -0.11 0.072 -0.204 0.166 -0.278 0.274 -0.074 0.11 -0.124 0.232 -0.15 0.36 -0.028 0.13 -0.028 0.262 -0.002 0.392 0.024 0.128 0.074 0.252 0.146 0.362 0.074 0.108 0.166 0.204 0.276 0.276 0.108 0.074 0.232 0.126 0.36 0.152 12.124 2.424 13.75 19.45 2.374 24 -0.126 0.046 -0.242 0.116 -0.34 0.208 -0.098 0.09 -0.178 0.2 -0.232 0.322 -0.056 0.124 -0.086 0.256 -0.088 0.39 -0.004 0.134 0.02 0.268 0.07 0.392s0.124 0.238 0.22 0.334c0.094 0.094 0.206 0.17 0.33 0.22 0.126 0.052 0.258 0.076 0.392 0.074 0.134 -0.002 0.268 -0.03 0.39 -0.084 3.328 -1.358 6.032 -3.906 7.584 -7.148 1.552 -3.24 1.844 -6.944 0.816 -10.388 3.328 -1.304 6.032 0.696 20.476 -1.714 1.66 -0.222 3.23 -0.89 4.544 -1.93 2.666 -2.188 1.194 -8.946 -5.178 -6.38Zm3.92 4.846c-1.038 0.804 -2.272 1.32 -3.574 1.494 -4.806 0.858 -9.682 1.272 -14.564 1.234 4.856 -2.162 9.826 -4.062 14.886 -5.692 0.816 -0.38 1.728 -0.51 2.618 -0.372 1.238 0.248 1.51 2.61 0.638 3.336h-0.004Z" stroke-width="1"></path><path id="vector_56" fill="#4b1010" d="M361.658 249.26c0.034 -2.008 -0.41 -3.996 -1.296 -5.798 -0.884 -1.804 -2.186 -3.37 -3.796 -4.572 -1.762 -1.332 -3.848 -2.166 -6.042 -2.416s-4.414 0.096 -6.43 0.998c-2.484 0.95 -4.802 2.29 -6.862 3.972v-0.468c-0.038 -0.274 -0.142 -0.536 -0.3 -0.762 -0.16 -0.228 -0.372 -0.412 -0.616 -0.542 -0.246 -0.128 -0.518 -0.196 -0.796 -0.2 -0.276 -0.002 -0.55 0.062 -0.798 0.186 -0.452 0.194 -0.874 0.45 -1.252 0.764 -4.5 3.75 -3.506 3 -4.76 3.752 -0.05 -0.494 -0.108 -0.988 -0.2 -1.482 -0.034 -0.17 -0.11 -0.326 -0.224 -0.458 -0.112 -0.13 -0.256 -0.23 -0.42 -0.288 -0.162 -0.058 -0.336 -0.072 -0.506 -0.044 -0.17 0.03 -0.33 0.102 -0.464 0.212 -2.15 1.786 -4.428 3.412 -6.816 4.866 0.274 -0.938 0.074 -2.436 -0.946 -2.538 -1.508 -0.022 -2.982 0.448 -4.2 1.338 -0.672 0.458 -1.408 0.814 -2.184 1.06 0.422 -1 1.43 -2.4 0.2 -3.384 -0.32 -0.254 -0.708 -0.412 -1.114 -0.456 -0.408 -0.042 -0.82 0.032 -1.186 0.214l-6.854 2.286c0.07 -0.584 0.104 -1.174 0.102 -1.762 0 -0.8 -0.88 -1.24 -1.694 -1.212 -3.952 0.14 -7.358 2.5 -11 3.572 0.244 -0.906 1.056 -2.302 0.076 -3.28 -0.316 -0.256 -0.69 -0.43 -1.09 -0.512 -0.398 -0.08 -0.81 -0.062 -1.202 0.05 -4.18 0.798 -8.268 2.022 -12.2 3.654 -0.47 0.2 -0.082 0.332 -1.112 0.338 -0.156 -0.068 -0.214 -0.128 -0.244 -0.134 0.616 -0.556 1.002 -1.322 1.086 -2.148 0.026 -0.338 -0.044 -0.678 -0.202 -0.978 -0.16 -0.3 -0.4 -0.548 -0.694 -0.718 -0.294 -0.17 -0.63 -0.252 -0.968 -0.24 -0.34 0.014 -0.668 0.122 -0.948 0.314 -6.85 2.854 -12.944 7.258 -17.8 12.868 -8.582 2.93 -16.276 8 -22.354 14.73 -4.014 4.464 -6.876 10.752 -1.494 13.4 11.44 7.28 23.102 7.08 36.668 5.676 6.804 2.046 13.976 2.554 21 1.488 0.4 0.008 0.79 -0.134 1.092 -0.398 0.302 -0.262 0.496 -0.628 0.544 -1.026 0 -0.844 -1.08 -1.678 -1.6 -1.816 -0.894 -0.24 -1.756 -0.584 -2.57 -1.022 11.96 -2.37 29.042 -7 40.04 -14.752 5.166 -0.77 9.978 -3.09 13.8 -6.65 1.446 -1.37 0.624 -2.82 -0.304 -2.77l-3.896 0.086c5.286 -7.988 5.6 -17.182 9.068 -18.77 3.6 0.652 4.62 7.678 4.62 11.498 0 2.75 0 5.348 0.216 8.148 0.114 1.522 0.58 2.998 1.36 4.31 0.778 1.312 1.852 2.426 3.134 3.254 0.192 0.122 0.418 0.176 0.644 0.152 0.226 -0.024 0.438 -0.124 0.6 -0.284 0.16 -0.16 0.262 -0.37 0.288 -0.596 0.026 -0.226 -0.026 -0.454 -0.146 -0.646 -1.488 -2.38 -0.84 -4.638 -0.068 -7.528 1.008 -4.022 1.506 -8.156 1.482 -12.302 0.838 2.122 1.18 4.408 1 6.684 -0.02 0.256 0.058 0.508 0.22 0.708 0.16 0.2 0.392 0.328 0.646 0.362 0.254 0.034 0.51 -0.03 0.718 -0.182 0.208 -0.15 0.35 -0.374 0.396 -0.626 0.536 -2.354 0.754 -4.768 0.648 -7.18Zm-86.858 -5.134c-0.024 0.022 -0.032 0.042 0 0.06l-0.042 -0.028 0.042 -0.032Zm-0.4 0.2c-0.136 0.302 -0.97 0.848 -0.97 1.754 0.018 0.562 0.236 1.1 0.612 1.516 0.378 0.418 0.892 0.686 1.45 0.76 0.794 0.086 1.594 -0.118 2.25 -0.576 3.874 -1.546 7.882 -2.73 11.974 -3.538 -0.046 0.172 -0.128 0.4 -0.18 0.532 -0.42 1.162 -0.818 2.666 0.376 3.262 1.894 0.948 7.712 -3 11.952 -3.548l-0.182 2.366c-0.012 0.164 0.016 0.328 0.082 0.48 0.068 0.15 0.17 0.282 0.3 0.384 0.13 0.1 0.282 0.168 0.444 0.196 0.164 0.028 0.33 0.016 0.486 -0.036l8.382 -2.8c-0.06 0.134 -0.132 0.276 -0.186 0.384 -0.362 0.722 -1.114 2.224 0.386 3.216 0.268 0.168 0.576 0.262 0.892 0.274 0.316 0.01 0.628 -0.062 0.908 -0.21 0.898 -0.304 1.758 -0.714 2.56 -1.222 0.68 -0.446 1.42 -0.792 2.2 -1.024 -0.068 0.136 -0.102 0.286 -0.102 0.438 -0.06 0.418 0 0.844 0.172 1.228 0.174 0.384 0.454 0.712 0.806 0.942 0.314 0.102 0.648 0.128 0.976 0.078 0.326 -0.052 0.636 -0.178 0.906 -0.37 2.046 -1.208 4.008 -2.552 5.874 -4.024 0.05 0.498 0.106 1 0.2 1.492 0.042 0.208 0.15 0.398 0.308 0.542 0.156 0.144 0.356 0.232 0.568 0.256 0.212 0.022 0.424 -0.024 0.608 -0.132 0.184 -0.108 0.33 -0.27 0.414 -0.466 0.414 -0.306 0.846 -0.586 1.296 -0.836 0.27 -0.14 0.526 -0.306 0.764 -0.496 1.328 -1.27 2.752 -2.432 4.264 -3.476 -0.158 0.634 -0.358 1.258 -0.6 1.866 -2.416 2.24 -5.188 4.064 -8.2 5.4 -11.166 3.308 -19.938 0.368 -32.936 0.18 -1.766 -0.22 -3.552 -0.22 -5.318 0 -9.482 0.488 -18.874 2.078 -27.988 4.738 4.04 -4.13 8.892 -7.378 14.252 -9.536v0.006Zm13.572 44.574c-4.394 0.546 -8.846 0.382 -13.188 -0.486 3.2 -0.428 6.384 -0.932 9.55 -1.512 1.112 0.83 2.336 1.5 3.634 1.992l0.004 0.006Zm50.852 -24.67c-2.284 1.888 -4.884 3.356 -7.678 4.34 1.548 -1.274 2.96 -2.704 4.214 -4.266l3.464 -0.074Zm6.63 -22.702c-6.052 2.178 -4.448 15.356 -14.352 24.414 -9.668 8.81 -20.414 12.276 -35.67 16.548 -13.442 3.292 -33.462 6.774 -47.4 4.868 -5.35 -0.77 -10.468 -2.694 -15 -5.64 -0.474 -0.246 -0.898 -0.578 -1.248 -0.98 2.704 -3.926 6.778 -6.696 11.422 -7.768 0.13 -0.026 0.252 -0.08 0.362 -0.154 0.108 -0.074 0.202 -0.17 0.274 -0.28 0.072 -0.112 0.12 -0.236 0.144 -0.366 0.024 -0.13 0.022 -0.262 -0.006 -0.392 -0.028 -0.13 -0.082 -0.252 -0.158 -0.36 -0.076 -0.108 -0.172 -0.2 -0.284 -0.272 -0.11 -0.07 -0.236 -0.118 -0.366 -0.14 -0.13 -0.024 -0.264 -0.02 -0.392 0.01 -4.588 1.04 -8.69 3.604 -11.638 7.27 0.736 -5.2 8.8 -12.134 13.242 -15.012 14.028 -9.05 30.858 -11.02 43.918 -12.16 1.666 -0.194 3.346 -0.194 5.012 0 13.4 0.212 21.942 3.214 33.646 -0.254 6.124 -1.814 11.876 -10.034 18.6 -11.732 0.176 0.378 0.256 0.794 0.238 1.21 -0.02 0.418 -0.138 0.824 -0.348 1.184l0.004 0.006Zm9.248 -0.264c-0.196 -0.158 -0.444 -0.234 -0.694 -0.218 -0.252 0.018 -0.486 0.13 -0.658 0.312 -0.174 0.182 -0.27 0.424 -0.274 0.676 -0.002 0.25 0.09 0.494 0.258 0.68 1.656 1.958 2.612 4.414 2.716 6.976 0 8.892 -2.37 13.568 -2.326 16.576 -1.15 -2.064 -1.2 -3.972 -1.2 -11.266 0 -4.424 -1.06 -11.072 -5.022 -13.042 0.378 -1.132 0.356 -2.362 -0.062 -3.48 2.8 -0.316 5.618 0.402 7.926 2.016 1.184 0.89 2.172 2.018 2.898 3.308 0.726 1.292 1.176 2.722 1.322 4.196 -0.984 -2.65 -2.676 -4.98 -4.888 -6.74l0.004 0.006Z" stroke-width="1"></path></g><g id="group_8"><path id="vector_57" fill="#4b1010" d="M349.05 252.928c-2.686 17.154 -33.412 30.59 -69.952 30.59 -36.934 0 -67.658 -13.52 -69.946 -30.778 -0.032 -0.248 -0.156 -0.474 -0.346 -0.634 -0.19 -0.16 -0.434 -0.244 -0.682 -0.236 -0.25 0.01 -0.486 0.112 -0.664 0.286 -0.178 0.174 -0.284 0.41 -0.298 0.658 -0.42 7.364 5.97 39.2 7.372 42 2.142 3.534 5.188 6.434 8.822 8.4 15.358 9.422 32.808 14.9 50.796 15.948 17.988 1.046 35.954 -2.37 52.302 -9.948 5.38 -2.144 10.072 -5.712 13.576 -10.324 2.572 -3.742 10.812 -40.676 11 -45.768 -0.002 -0.248 -0.094 -0.486 -0.26 -0.668 -0.168 -0.184 -0.396 -0.298 -0.642 -0.322 -0.246 -0.024 -0.494 0.044 -0.692 0.19 -0.2 0.148 -0.336 0.364 -0.386 0.606Z" stroke-width="1"></path><path id="vector_58" fill="#ffffff" d="M294.8 302.228c-1.6 -2.4 -4.556 -2.948 -6.962 -7.358 -1.084 -1.068 -2.436 -1.828 -3.912 -2.2 -1.446 -0.258 -2.938 -0.068 -4.274 0.546 -1.334 0.614 -2.45 1.62 -3.198 2.886 -2.13 6.388 -7 5.854 -6.4 9.432 0.096 0.432 0.286 0.84 0.554 1.192 0.27 0.352 0.612 0.642 1.004 0.85 0.51 0.264 1.084 0.384 1.658 0.342 0.574 -0.042 1.126 -0.242 1.592 -0.578 -0.126 1.024 0.088 2.06 0.612 2.95 0.622 0.87 1.442 1.582 2.392 2.076 0.948 0.494 2.002 0.758 3.072 0.768 0.252 0 0.96 0.092 2.084 0.092 6.068 0 8.488 -3.476 7.862 -7.338 3.196 0.946 5.126 -1.288 3.916 -3.66Zm-21.6 3.662c-0.254 0.052 -0.52 0.006 -0.742 -0.128 -0.222 -0.134 -0.386 -0.346 -0.458 -0.596 -0.212 -1.148 2.296 -1.654 4.49 -4.752 0.046 0.238 0.094 0.476 0.142 0.716 0.568 2.07 -1.432 3.96 -3.432 4.76Zm15.236 3.166c-1.298 2.22 -4.338 2.292 -7.43 2.072 -0.738 -0.006 -1.464 -0.178 -2.128 -0.502 -0.662 -0.324 -1.244 -0.794 -1.7 -1.372 -1.484 -2.724 2.346 -5.08 1.4 -8.58 -0.22 -0.938 -0.36 -1.894 -0.416 -2.856 0.334 -2.494 3.08 -3.492 5.484 -3.174 0.67 0.092 1.288 0.416 1.746 0.914 0.46 0.498 0.73 1.14 0.768 1.816 -0.192 2.364 0.416 4.726 1.728 6.704 0.59 0.674 0.96 1.512 1.058 2.402 0.1 0.89 -0.076 1.788 -0.504 2.576h-0.006Zm4.722 -5.326c-0.03 0.11 -0.126 0.2 -0.4 0.37 -0.502 0.044 -1.01 -0.02 -1.486 -0.186s-0.912 -0.43 -1.28 -0.776c-0.14 -0.14 -0.32 -0.236 -0.514 -0.274 -0.776 -1.236 -1.236 -2.642 -1.338 -4.098 1.058 1.188 2.254 2.244 3.562 3.15 0.438 0.284 1.62 1.248 1.462 1.814h-0.006Z" stroke-width="1"></path><path id="vector_59" fill="#ffffff" d="M279.586 306.818c0.232 -2.692 4.038 -3.268 5.966 -1.728 0.372 0.28 0.654 0.664 0.808 1.104 0.154 0.44 0.176 0.914 0.06 1.366 -0.172 0.47 -0.436 0.902 -0.776 1.27s-0.75 0.664 -1.206 0.87c-3.09 0.774 -4.852 -0.946 -4.852 -2.882Zm3.344 -0.556c-1.642 0 -1.704 1.032 -0.622 1.574 0.404 0.158 0.852 0.158 1.256 0.004 0.404 -0.156 0.736 -0.456 0.932 -0.842 0.034 -0.488 -1.006 -0.736 -1.566 -0.736Z" stroke-width="1"></path></g></g><g id="group_9"><path id="vector_60" fill="#ffe55d" d="M101.328 208.056c2.15 1.666 3.824 4.248 2.336 7 -0.235 0.504 -0.5906 0.94 -1.035 1.274 -0.4444 0.334 -0.964 0.552 -1.513 0.636h-0.638c-0.212 -0.212 -0.212 -0.212 -0.212 -0.424L99.2 213.8c0.3986 1.49 0.2482 3.072 -0.424 4.46 -0.2756 0.472 -0.6744 0.858 -1.1534 1.12 -0.479 0.262 -1.0202 0.39 -1.5658 0.368 -0.5456 -0.022 -1.075 -0.192 -1.5312 -0.492 -0.4564 -0.3 -0.8226 -0.718 -1.0596 -1.21 -0.862 -1.722 -0.918 -2.05 -1.912 -2.548 0.85 1.912 0.638 4.46 -1.912 4.46s-3.822 -2.124 -5.522 -3.4c-0.3918 -0.252 -0.6904 -0.624 -0.85 -1.062v-1.062c0.6356 -1.974 1.8058 -3.734 3.3808 -5.084 1.5748 -1.35 3.4928 -2.236 5.5412 -2.562 3.0992 -0.678 6.3386 -0.228 9.136 1.268Z" stroke-width="1"></path><path id="vector_61" fill="#4b1010" d="M89.646 220.95c-3 0 -4.488 -2.372 -6.122 -3.6 -0.3248 -0.208 -0.6034 -0.48 -0.8186 -0.802 -0.215 -0.32 -0.3618 -0.68 -0.4314 -1.06 -0.0408 -0.454 -0.0246 -0.912 0.048 -1.362 0.6686 -2.166 1.9368 -4.098 3.6582 -5.574 1.7212 -1.474 3.825 -2.432 6.0678 -2.76 3.3604 -0.764 6.8852 -0.244 9.88 1.462 2.692 2.022 4.28 5.2 2.618 8.284 -0.3858 0.838 -1.0408 1.522 -1.8608 1.944 -0.82 0.42 -1.7576 0.556 -2.6632 0.382 -0.2288 0.73 -0.66 1.38 -1.2432 1.876 -0.5834 0.496 -1.295 0.816 -2.0528 0.924 -0.7578 0.108 -1.5306 -0.002 -2.2288 -0.314 -0.6984 -0.314 -1.2938 -0.818 -1.7172 -1.456 -0.226 0.638 -0.6548 1.184 -1.2208 1.556 -0.566 0.37 -1.238 0.546 -1.9132 0.5Zm-3.5 -3.948c0.4226 0.544 0.9504 0.996 1.5516 1.33 0.6014 0.334 1.264 0.546 1.9484 0.618 0.818 0 1.048 -0.354 1.124 -0.472 0.1728 -0.412 0.2512 -0.858 0.2294 -1.306 -0.0218 -0.446 -0.1432 -0.882 -0.3554 -1.276 -0.0812 -0.188 -0.1028 -0.396 -0.0624 -0.596 0.0406 -0.2 0.1416 -0.382 0.2892 -0.524 0.1478 -0.142 0.3352 -0.234 0.537 -0.266 0.2018 -0.03 0.4086 0 0.5922 0.09 0.8078 0.368 1.4436 1.032 1.776 1.854l0.582 1.14c0.6 1.496 2.518 1.524 3.616 0.062 0.493 -1.13 0.5854 -2.396 0.262 -3.586 -0.0754 -0.25 -0.0508 -0.518 0.0686 -0.75 0.1194 -0.23 0.3244 -0.406 0.5712 -0.488 0.247 -0.084 0.5162 -0.066 0.7508 0.046 0.2346 0.114 0.4158 0.314 0.5054 0.558l0.978 2.544c0.3478 -0.082 0.6734 -0.238 0.9536 -0.46 0.28 -0.222 0.5076 -0.502 0.6664 -0.822 1.382 -2.582 -0.668 -4.762 -2.02 -5.848 -2.5602 -1.33 -5.5082 -1.714 -8.324 -1.084 -1.8548 0.268 -3.5978 1.048 -5.0324 2.254 -1.4344 1.206 -2.5032 2.788 -3.0856 4.57 0.006 1.25 -0.158 0.474 1.878 2.41v0.002Z" stroke-width="1"></path></g><g id="group_10"><path id="vector_62" fill="#ffffff" d="M234.922 218.888c-0.832 0.94 -1.376 2.102 -1.564 3.342 -0.188 1.242 -0.014 2.512 0.502 3.658 1.486 2.76 5.946 4.672 6.8 0.212 0.142 -0.926 0.068 -1.87 -0.212 -2.762 0.85 1.276 1.062 2.55 1.912 3.824 0.206 0.434 0.526 0.804 0.926 1.07s0.866 0.418 1.346 0.44c0.48 0.022 0.958 -0.088 1.38 -0.316 0.422 -0.23 0.776 -0.568 1.02 -0.982 0.928 -1.604 1.232 -3.496 0.85 -5.31 0.202 1.072 0.636 2.088 1.274 2.974 0.242 0.262 0.53 0.478 0.85 0.638 0.3 0.032 0.6 -0.044 0.85 -0.214 7.19 -3.894 4 -16.098 -9.134 -11.044 -4.428 2.538 -3.966 1.636 -6.8 4.47Z" stroke-width="1"></path><path id="vector_63" fill="#4b1010" d="M232.978 226.372c-0.612 -1.328 -0.826 -2.806 -0.612 -4.252 0.212 -1.448 0.842 -2.802 1.812 -3.896 3.036 -3.046 2.558 -2.1 7.046 -4.664 2.906 -1.238 6.118 -1.57 9.216 -0.956 6.71 2.226 6.704 10.502 0.986 13.696 -0.27 0.188 -0.578 0.31 -0.902 0.358 -0.324 0.05 -0.656 0.022 -0.968 -0.078 -0.312 -0.154 -0.602 -0.35 -0.86 -0.584 -0.192 0.656 -0.46 1.288 -0.8 1.884 -0.398 0.748 -1.056 1.324 -1.852 1.618 -0.796 0.292 -1.672 0.28 -2.46 -0.032 -0.988 -0.368 -1.796 -1.104 -2.256 -2.052 -1.502 3.868 -6.408 2.558 -8.35 -1.042Zm2.652 -6.776c-0.694 0.794 -1.144 1.772 -1.298 2.818 -0.152 1.044 0 2.11 0.438 3.07 0.338 0.658 0.846 1.216 1.472 1.614 0.624 0.398 1.344 0.624 2.084 0.652 0.684 -0.106 1.138 -0.72 1.348 -1.828 0.098 -0.782 0.03 -1.576 -0.2 -2.33 -0.058 -0.228 -0.032 -0.47 0.07 -0.682 0.104 -0.212 0.278 -0.38 0.494 -0.476 1.984 -0.882 2.172 4.414 4.222 5.15 0.336 0.15 0.716 0.166 1.064 0.046 0.348 -0.12 0.638 -0.366 0.81 -0.692 0.822 -1.408 1.094 -3.07 0.762 -4.666 -0.054 -0.26 -0.004 -0.53 0.14 -0.754 0.146 -0.222 0.372 -0.378 0.632 -0.432 0.26 -0.056 0.53 -0.004 0.752 0.14 0.224 0.144 0.38 0.372 0.434 0.632 0.35 1.618 1.12 2.868 1.436 2.8 6.324 -3.5 3.612 -13.85 -8.212 -9.304 -4.232 2.464 -3.666 1.462 -6.448 4.246v-0.004Z" stroke-width="1"></path><path id="vector_64" fill="#ffffff" d="M330.498 178.3216c0 -0.64 -31.56 3.05 -31.56 3.05 3.58 5.0824 6.472 10.6166 8.6 16.458 -7.214 2.4304 -13.284 7.4004 -20.474 12.4264 -2.2 0.102 -4.376 0.506 -6.468 1.2 -11.366 3.6 -6.3 16.34 -1.274 12.32 1.062 -1.062 0.848 -2.974 1.274 -4.462 -0.206 1.336 -0.104 2.7 0.302 3.99 0.404 1.29 1.1 2.468 2.034 3.446 0.356 0.424 0.82 0.746 1.344 0.934 0.522 0.186 1.084 0.23 1.63 0.126 1.912 -0.848 2.336 -5.308 2.548 -7.22 -0.048 1.6 0.242 3.192 0.85 4.672 0.296 0.752 0.83 1.388 1.518 1.81 0.69 0.42 1.5 0.606 2.304 0.526 2.338 -0.424 3.186 -3.4 3.612 -5.734 12.742 -0.426 27.822 0.212 34.832 -12.744 5.512 -9.9844 3.812 -21.0284 -1.072 -30.7984Z" stroke-width="1"></path><path id="vector_65" fill="#4b1010" d="M331.4 177.8738c-0.058 -0.1182 -0.14 -0.2236 -0.24 -0.3104 -0.1 -0.0868 -0.214 -0.153 -0.34 -0.195 -0.124 -0.0422 -0.256 -0.0592 -0.388 -0.0502 -0.132 0.009 -0.26 0.044 -0.378 0.1026 -0.12 0.0588 -0.224 0.1402 -0.312 0.2396 -0.086 0.0994 -0.152 0.215 -0.194 0.34 -0.042 0.1252 -0.06 0.2574 -0.05 0.389 0.008 0.1316 0.044 0.2602 0.102 0.3784 3.814 7.624 7.096 19 1.078 29.8742 -6.576 12.158 -20.268 11.8 -33.986 12.22 -0.228 0.008 -0.448 0.094 -0.62 0.244 -0.174 0.148 -0.29 0.352 -0.33 0.578 -0.56 3.074 -1.478 4.686 -2.752 4.92 -2.782 0.336 -3.548 -3.214 -3.548 -6.016 0.014 -0.266 -0.076 -0.526 -0.254 -0.724 -0.176 -0.198 -0.424 -0.318 -0.69 -0.332 -0.266 -0.016 -0.526 0.076 -0.724 0.254 -0.198 0.176 -0.318 0.424 -0.332 0.69 -0.4 3.552 -0.946 5.828 -1.868 6.372 -0.358 0.042 -0.722 -0.006 -1.056 -0.14 -0.336 -0.134 -0.63 -0.352 -0.86 -0.63 -0.832 -0.868 -1.452 -1.916 -1.814 -3.064 -0.364 -1.146 -0.458 -2.36 -0.278 -3.548 0.04 -0.252 -0.018 -0.51 -0.162 -0.72 -0.144 -0.21 -0.362 -0.358 -0.612 -0.412 -0.248 -0.056 -0.508 -0.012 -0.728 0.118 -0.218 0.132 -0.378 0.34 -0.448 0.586 -0.4 1.4 -0.318 3.32 -0.936 3.954 -3.728 2.982 -7.566 -7.502 2.214 -10.588 3.138 -1.05 6.468 -1.396 9.754 -1.018 0.264 0.032 0.528 -0.04 0.738 -0.204 0.21 -0.162 0.346 -0.402 0.38 -0.666 0.032 -0.262 -0.042 -0.528 -0.204 -0.738 -0.164 -0.21 -0.402 -0.346 -0.666 -0.378 -0.492 -0.06 -0.992 -0.104 -1.498 -0.132 5.798 -4.306 12.094 -7.896 18.75 -10.6962 0.122 -0.0508 0.232 -0.1254 0.326 -0.2192 0.092 -0.0938 0.166 -0.2052 0.216 -0.3276 0.048 -0.1222 0.074 -0.2532 0.072 -0.3852 0 -0.1322 -0.028 -0.2626 -0.08 -0.384 -2.588 -6.009 -5.748 -11.7554 -9.436 -17.16 -0.072 -0.1108 -0.168 -0.206 -0.278 -0.28 -0.108 -0.074 -0.232 -0.1254 -0.362 -0.1514 -0.13 -0.0258 -0.264 -0.0254 -0.394 0.001s-0.254 0.0784 -0.364 0.1528c-0.11 0.0746 -0.202 0.1702 -0.276 0.2812 -0.072 0.1112 -0.122 0.2356 -0.146 0.366 -0.022 0.1304 -0.02 0.2642 0.008 0.3938 0.028 0.1294 0.082 0.252 0.158 0.3606 3.426 5.0224 6.388 10.3448 8.852 15.902 -7.306 3.1822 -14.176 7.2822 -20.446 12.2002 -1.946 0.168 -3.866 0.564 -5.72 1.178 -8.4 2.652 -9.314 10.98 -5.2 14.266 0.766 0.546 1.704 0.8 2.64 0.714 0.938 -0.086 1.814 -0.504 2.468 -1.18 0.464 1.12 1.12 2.15 1.938 3.044 0.468 0.58 1.084 1.02 1.784 1.274s1.456 0.314 2.186 0.17c1.142 -0.232 2 -1.828 2.378 -2.926 0.412 0.906 1.102 1.658 1.968 2.146 0.868 0.49 1.87 0.688 2.858 0.57 2.688 -0.488 3.738 -3.324 4.258 -5.742 14.012 -0.4 27.978 -0.474 34.88 -13.236 6.434 -11.6302 2.984 -23.6722 -1.036 -31.7262Z" stroke-width="1"></path></g></g></svg>